<?xml version="1.0" standalone="no"?>
<!DOCTYPE svg PUBLIC "-//W3C//DTD SVG 20010904//EN"
 "http://www.w3.org/TR/2001/REC-SVG-20010904/DTD/svg10.dtd">
<svg version="1.0" xmlns="http://www.w3.org/2000/svg"
 width="236.000000pt" height="236.000000pt" viewBox="0 0 236.000000 236.000000"
 preserveAspectRatio="xMidYMid meet">
<metadata>
Created by potrace 1.14, written by Peter Selinger 2001-2017
</metadata>
<g transform="translate(0.000000,236.000000) scale(0.100000,-0.100000)"
fill="#000000" stroke="none">
<path d="M0 1180 l0 -920 1180 0 1180 0 0 920 0 920 -1180 0 -1180 0 0 -920z
m960 860 c0 -18 7 -20 60 -20 53 0 60 -2 60 -20 0 -17 7 -20 40 -20 33 0 40
-3 40 -20 0 -13 7 -20 20 -20 13 0 20 -7 20 -20 0 -17 7 -20 40 -20 l40 0 0
-40 c0 -33 3 -40 20 -40 13 0 20 -7 20 -20 0 -13 7 -20 20 -20 19 0 20 -7 20
-160 0 -153 -1 -160 -20 -160 -17 0 -20 -7 -20 -40 0 -33 -3 -40 -20 -40 -13
0 -20 -7 -20 -20 0 -13 -7 -20 -20 -20 -13 0 -20 -7 -20 -20 0 -13 -7 -20 -20
-20 -13 0 -20 -7 -20 -20 0 -17 -7 -20 -40 -20 -33 0 -40 -3 -40 -20 0 -17 7
-20 40 -20 33 0 40 -3 40 -20 0 -13 7 -20 20 -20 13 0 20 -7 20 -20 0 -13 7
-20 20 -20 13 0 20 -7 20 -20 0 -17 7 -20 40 -20 l40 0 0 -40 c0 -33 3 -40 20
-40 13 0 20 -7 20 -20 0 -13 7 -20 20 -20 18 0 20 -7 20 -80 0 -73 2 -80 20
-80 13 0 20 -7 20 -20 0 -13 -7 -20 -20 -20 -18 0 -20 -7 -20 -80 0 -73 -2
-80 -20 -80 -17 0 -20 -7 -20 -40 0 -33 -3 -40 -20 -40 -13 0 -20 -7 -20 -20
0 -13 -7 -20 -20 -20 -13 0 -20 -7 -20 -20 0 -17 -7 -20 -40 -20 -33 0 -40 -3
-40 -20 0 -13 -7 -20 -20 -20 -13 0 -20 -7 -20 -20 0 -18 -7 -20 -60 -20 -53
0 -60 -2 -60 -20 0 -20 -7 -20 -520 -20 l-520 0 0 60 c0 53 2 60 20 60 20 0
20 7 20 740 0 733 0 740 -20 740 -18 0 -20 7 -20 60 l0 60 460 0 c453 0 460 0
460 -20z m880 -80 c0 -13 7 -20 20 -20 13 0 20 -7 20 -20 0 -18 -7 -20 -60
-20 -53 0 -60 -2 -60 -20 0 -17 7 -20 40 -20 33 0 40 -3 40 -20 0 -13 7 -20
20 -20 18 0 20 -7 20 -60 0 -53 -2 -60 -20 -60 -13 0 -20 -7 -20 -20 0 -18 -7
-20 -60 -20 -53 0 -60 2 -60 20 0 13 -7 20 -20 20 -13 0 -20 7 -20 20 0 18 7
20 60 20 53 0 60 2 60 20 0 13 -7 20 -20 20 -13 0 -20 7 -20 20 0 17 -7 20
-40 20 l-40 0 0 60 c0 53 2 60 20 60 13 0 20 7 20 20 0 18 7 20 60 20 53 0 60
-2 60 -20z m440 0 c0 -13 7 -20 20 -20 17 0 20 -7 20 -40 0 -33 -3 -40 -20
-40 -13 0 -20 -7 -20 -20 0 -17 -7 -20 -40 -20 l-40 0 0 -40 0 -40 -40 0 -40
0 0 120 0 120 80 0 c73 0 80 -2 80 -20z m-480 -560 l0 -100 60 0 c53 0 60 -2
60 -20 0 -19 -7 -20 -100 -20 l-100 0 0 120 0 120 40 0 40 0 0 -100z m280 80
c0 -13 7 -20 20 -20 13 0 20 -7 20 -20 0 -13 7 -20 20 -20 17 0 20 7 20 40 l0
40 40 0 c33 0 40 -3 40 -20 0 -13 -7 -20 -20 -20 -13 0 -20 -7 -20 -20 0 -13
-7 -20 -20 -20 -18 0 -20 -7 -20 -80 l0 -80 -40 0 -40 0 0 80 c0 73 -2 80 -20
80 -13 0 -20 7 -20 20 0 13 -7 20 -20 20 -13 0 -20 7 -20 20 0 17 7 20 40 20
33 0 40 -3 40 -20z"/>
<path d="M360 1600 l0 -260 280 0 c273 0 280 0 280 20 0 17 7 20 40 20 33 0
40 3 40 20 0 13 7 20 20 20 17 0 20 7 20 40 0 33 3 40 20 40 19 0 20 7 20 100
0 93 -1 100 -20 100 -13 0 -20 7 -20 20 0 13 -7 20 -20 20 -13 0 -20 7 -20 20
0 13 -7 20 -20 20 -13 0 -20 7 -20 20 0 17 -7 20 -40 20 -33 0 -40 3 -40 20 0
19 -7 20 -260 20 l-260 0 0 -260z"/>
<path d="M360 840 l0 -300 300 0 c293 0 300 0 300 20 0 17 7 20 40 20 33 0 40
3 40 20 0 17 7 20 40 20 l40 0 0 40 c0 33 3 40 20 40 19 0 20 7 20 120 0 113
-1 120 -20 120 -13 0 -20 7 -20 20 0 13 -7 20 -20 20 -13 0 -20 7 -20 20 0 13
-7 20 -20 20 -13 0 -20 7 -20 20 0 17 -7 20 -40 20 -33 0 -40 3 -40 20 0 18
-7 20 -80 20 -73 0 -80 2 -80 20 0 19 -7 20 -220 20 l-220 0 0 -300z"/>
<path d="M2200 1900 c0 -33 3 -40 20 -40 17 0 20 7 20 40 0 33 -3 40 -20 40
-17 0 -20 -7 -20 -40z"/>
</g>
</svg>
